<svg xmlns="http://www.w3.org/2000/svg" width="166.445" height="37.441" viewBox="0 0 166.445 37.441">
  <g id="logo" transform="translate(-547.988 -244.632)">
    <g id="Group_294" data-name="Group 294" transform="translate(608.051 247.005)">
      <g id="Group_290" data-name="Group 290" transform="translate(0)">
        <path id="Path_1905" data-name="Path 1905" d="M441.181,423.488l-5.193-15.908h2.219l2.478,7.836c.684,2.148,1.275,4.083,1.7,5.948h.047c.449-1.841,1.109-3.847,1.818-5.924l2.691-7.86h2.2l-5.688,15.908Z" transform="translate(-435.988 -407.321)" fill="#fff"/>
        <path id="Path_1906" data-name="Path 1906" d="M512.084,407.58v15.908H510.03V407.58Z" transform="translate(-490.439 -407.321)" fill="#fff"/>
        <path id="Path_1907" data-name="Path 1907" d="M547.161,409.327h-4.838V407.58H554.1v1.747h-4.862v14.161h-2.077Z" transform="translate(-514.187 -407.321)" fill="#fff"/>
        <path id="Path_1908" data-name="Path 1908" d="M613.422,407.58v15.908h-2.054V407.58Z" transform="translate(-564.963 -407.321)" fill="#fff"/>
        <path id="Path_1909" data-name="Path 1909" d="M659.023,422.248a10.19,10.19,0,0,1-4.2.755c-4.485,0-7.86-2.832-7.86-8.049a7.916,7.916,0,0,1,8.308-8.355,8.531,8.531,0,0,1,3.776.708l-.5,1.676a7.485,7.485,0,0,0-3.21-.661c-3.729,0-6.207,2.384-6.207,6.561,0,3.895,2.242,6.4,6.113,6.4a8.217,8.217,0,0,0,3.352-.661Z" transform="translate(-591.139 -406.6)" fill="#fff"/>
        <path id="Path_1910" data-name="Path 1910" d="M719.694,418.485l-1.652,5h-2.124l5.4-15.908H723.8l5.429,15.908h-2.2l-1.7-5Zm5.216-1.6-1.558-4.579c-.354-1.039-.59-1.983-.826-2.9h-.047c-.236.944-.5,1.912-.8,2.88l-1.558,4.6Z" transform="translate(-641.849 -407.321)" fill="#fff"/>
        <path id="Path_1911" data-name="Path 1911" d="M792.9,423.488V407.58h2.242l5.1,8.049A45.055,45.055,0,0,1,803.1,420.8l.047-.024c-.189-2.124-.236-4.059-.236-6.538V407.58h1.935v15.908h-2.077l-5.051-8.072a50.46,50.46,0,0,1-2.974-5.31l-.071.024c.118,2.006.165,3.918.165,6.562v6.8Z" transform="translate(-698.464 -407.321)" fill="#fff"/>
      </g>
      <g id="Group_293" data-name="Group 293" transform="translate(0 25.423)">
        <path id="Path_1914" data-name="Path 1914" d="M525.936,491.726a14.021,14.021,0,0,1,2.318-.18,3.842,3.842,0,0,1,2.623.777,2.515,2.515,0,0,1,.819,1.957,2.754,2.754,0,0,1-.722,2,3.876,3.876,0,0,1-2.859,1.027,4.132,4.132,0,0,1-.971-.084v3.747h-1.207Zm1.207,4.51a4.029,4.029,0,0,0,1,.1c1.457,0,2.346-.708,2.346-2,0-1.235-.875-1.832-2.207-1.832a5.056,5.056,0,0,0-1.138.1Z" transform="translate(-525.936 -491.463)" fill="#fff"/>
        <path id="Path_1915" data-name="Path 1915" d="M558.171,498.125l-.971,2.942h-1.249l3.178-9.353h1.457l3.192,9.353h-1.291l-1-2.942Zm3.067-.944-.916-2.692c-.208-.61-.347-1.165-.486-1.707h-.028c-.139.555-.292,1.124-.472,1.693l-.916,2.706Z" transform="translate(-543.503 -491.56)" fill="#fff"/>
        <path id="Path_1916" data-name="Path 1916" d="M594.868,491.74a12.575,12.575,0,0,1,2.317-.194,3.824,3.824,0,0,1,2.706.763,2.329,2.329,0,0,1,.736,1.776,2.456,2.456,0,0,1-1.763,2.387v.042a2.332,2.332,0,0,1,1.374,1.887,14.888,14.888,0,0,0,.722,2.568h-1.249a12.127,12.127,0,0,1-.624-2.234c-.278-1.29-.777-1.776-1.874-1.818h-1.138v4.053h-1.207Zm1.207,4.26h1.235c1.291,0,2.11-.708,2.11-1.776,0-1.207-.875-1.735-2.151-1.749a4.939,4.939,0,0,0-1.194.112Z" transform="translate(-566.281 -491.463)" fill="#fff"/>
        <path id="Path_1917" data-name="Path 1917" d="M630.17,492.74h-2.845v-1.027h6.925v1.027h-2.859v8.327H630.17Z" transform="translate(-585.278 -491.56)" fill="#fff"/>
        <path id="Path_1918" data-name="Path 1918" d="M663.264,501.066v-9.353h1.318l3,4.732a26.513,26.513,0,0,1,1.679,3.039l.028-.014c-.111-1.249-.139-2.387-.139-3.844v-3.913h1.138v9.353h-1.221l-2.97-4.746a29.707,29.707,0,0,1-1.748-3.122l-.042.014c.07,1.179.1,2.3.1,3.858v4Z" transform="translate(-606.312 -491.56)" fill="#fff"/>
        <path id="Path_1919" data-name="Path 1919" d="M706.856,496.681H703.22v3.372h4.052v1.013h-5.259v-9.353h5.051v1.013H703.22v2.956h3.636Z" transform="translate(-628.992 -491.56)" fill="#fff"/>
        <path id="Path_1920" data-name="Path 1920" d="M735.207,491.74a12.584,12.584,0,0,1,2.318-.194,3.824,3.824,0,0,1,2.706.763,2.33,2.33,0,0,1,.736,1.776,2.456,2.456,0,0,1-1.762,2.387v.042a2.332,2.332,0,0,1,1.373,1.887,14.964,14.964,0,0,0,.722,2.568H740.05a12.117,12.117,0,0,1-.625-2.234c-.277-1.29-.777-1.776-1.874-1.818h-1.138v4.053h-1.207Zm1.207,4.26h1.236c1.29,0,2.109-.708,2.109-1.776,0-1.207-.874-1.735-2.151-1.749a4.942,4.942,0,0,0-1.194.112Z" transform="translate(-648.42 -491.463)" fill="#fff"/>
        <path id="Path_1921" data-name="Path 1921" d="M769.108,499.38a4.284,4.284,0,0,0,2.165.611c1.235,0,1.957-.652,1.957-1.6,0-.875-.5-1.374-1.762-1.86-1.527-.541-2.47-1.332-2.47-2.65,0-1.457,1.208-2.54,3.025-2.54a4.249,4.249,0,0,1,2.068.458l-.333.985a3.722,3.722,0,0,0-1.776-.444c-1.276,0-1.763.763-1.763,1.4,0,.874.569,1.3,1.86,1.8,1.582.61,2.387,1.374,2.387,2.747,0,1.444-1.069,2.693-3.275,2.693a4.83,4.83,0,0,1-2.387-.6Z" transform="translate(-668.083 -491.345)" fill="#fff"/>
      </g>
    </g>
    <g id="Group_297" data-name="Group 297" transform="translate(547.988 244.632)">
      <g id="Group_292" data-name="Group 292" transform="translate(0)">
        <path id="Path_1912" data-name="Path 1912" d="M580.573,275.763l-2.346,6.207-12.511-32.89a6.649,6.649,0,0,0-1.026-1.808c-1.417-1.955-2.737-1.857-2.737-1.857v-.782h12.071v.782a6.467,6.467,0,0,0-1.32.1,3.021,3.021,0,0,0-2.15,1.124c-.928,1.271-.049,2.688.44,3.958.587,1.613,1.222,3.226,1.857,4.838l2.346,6.207c.782,2.052,4.643,12.12,4.887,12.755Zm4.252-30.349v-.782H594.6v.782a1.516,1.516,0,0,0-.391.1c-2.688.733-3.617,3.861-4.5,6.207h-1.026l.244-.733a5.021,5.021,0,0,0,.342-1.222C590.1,245.121,584.825,245.414,584.825,245.414Z" transform="translate(-561.953 -244.632)" fill="#fff"/>
        <g id="Group_291" data-name="Group 291" transform="translate(21.084)">
          <path id="Path_1913" data-name="Path 1913" d="M641.636,244.632v.684s3.323-.147,4.056,2.541a3.5,3.5,0,0,1,.1.977V276.2c-.147,3.617-4.154,3.47-4.154,3.47v.684h13.733v-.831c-.147,0-5.18.391-5.18-3.372V248.981c0-.244.049-.44.049-.635.419-2.595,2.983-2.823,4.173-2.836v-.878Z" transform="translate(-641.636 -244.632)" fill="#fff"/>
        </g>
      </g>
      <g id="Group_295" data-name="Group 295" transform="translate(33.888 0.06)">
        <path id="Path_1922" data-name="Path 1922" d="M692.4,244.86v1.029c6.159,1.334,5.885,9.015,5.885,9.907a14.428,14.428,0,0,1-.293,2.883,12.657,12.657,0,0,1-.684,2.2,7.144,7.144,0,0,1-1.075,1.613,5.531,5.531,0,0,1-1.271,1.124,11.04,11.04,0,0,1-1.271.782,12.663,12.663,0,0,1-1.271.391,5.774,5.774,0,0,1-.977.2l-1.417.2v.88h.88a2.782,2.782,0,0,1,.635-.049l1.026-.147c.44-.049.88-.147,1.32-.2.489-.147.929-.244,1.417-.391l1.515-.587a9.117,9.117,0,0,0,1.515-.831,7.882,7.882,0,0,0,1.466-1.026,11.924,11.924,0,0,0,1.271-1.417,9.9,9.9,0,0,0,1.026-1.71,10.722,10.722,0,0,0,.733-2.1,10.847,10.847,0,0,0,.293-2.493v-.489C703.126,246.766,695.957,245.156,692.4,244.86Z" transform="translate(-690.028 -244.86)" fill="#fff"/>
      </g>
    </g>
  </g>
</svg>
